<svg fill="#000000" width="55px" height="55px" viewBox="0 0 512 512" xmlns="http://www.w3.org/2000/svg">
  <defs></defs>
  <title>ionicons-v5-j</title>
  <path d="M258.9,48C141.92,46.42,46.42,141.92,48,258.9,49.56,371.09,140.91,462.44,253.1,464c117,1.6,212.48-93.9,210.88-210.88C462.44,140.91,371.09,49.56,258.9,48ZM385.32,375.25a4,4,0,0,1-6.14-.32,124.27,124.27,0,0,0-32.35-29.59C321.37,329,289.11,320,256,320s-65.37,9-90.83,25.34a124.24,124.24,0,0,0-32.35,29.58,4,4,0,0,1-6.14.32A175.32,175.32,0,0,1,80,259C78.37,161.69,158.22,80.24,255.57,80S432,158.81,432,256A175.32,175.32,0,0,1,385.32,375.25Z"></path>
  <path d="M256,144c-19.72,0-37.55,7.39-50.22,20.82s-19,32-17.57,51.93C191.11,256,221.52,288,256,288s64.83-32,67.79-71.24c1.48-19.74-4.8-38.14-17.68-51.82C293.39,151.44,275.59,144,256,144Z"></path>
  <g style="" transform="matrix(1.121412, 0, 0, 1.059132, 230.189087, 188.636368)">
    <path style="opacity:1" fill="#020202" d="M 118.5 -0.5 C 135.418 10.692 175.004 33.002 209.5 29.5 C 209.667 70.835 209.5 112.168 209 153.5 C 206.726 172.557 197.892 187.724 182.5 199 C 162.198 213.15 141.531 226.65 120.5 239.5 C 119.833 239.5 119.167 239.5 118.5 239.5 C 97.469 226.65 76.802 213.15 56.5 199 C 41.108 187.724 32.275 172.557 30 153.5 C 29.5 112.168 29.333 70.835 29.5 29.5 C 39.86 29.578 50.193 29.078 60.5 28 C 83.098 24.845 102.431 15.345 118.5 -0.5 Z"></path>
  </g>
  <g transform="matrix(1.143276, 0, 0, 1.079782, 229.54541, 183.690384)" style="">
    <path style="opacity:1" fill="#fdfdfd" d="M 117.5 25.5 C 137.085 38.297 168.752 48.646 189.5 48.5 C 189.667 82.502 189.5 116.502 189 150.5 C 188.657 158.196 186.324 165.196 182 171.5 C 177.86 175.64 173.694 179.806 169.5 184 C 153.301 195.265 136.634 205.765 119.5 215.5 C 98.749 204.375 79.249 191.375 61 176.5 C 54.056 169.272 50.389 160.605 50 150.5 C 49.5 116.502 49.333 82.502 49.5 48.5 C 74.891 48.371 97.557 40.704 117.5 25.5 Z"></path>
  </g>
  <g transform="matrix(1.143276, 0, 0, 1.079782, 229.54541, 183.690384)" style="">
    <path style="opacity:1" fill="#000000" d="M 119.5,49.5 C 135.051,58.4625 151.718,64.4625 169.5,67.5C 169.959,96.8754 169.459,126.209 168,155.5C 165.588,159.916 162.422,163.749 158.5,167C 145.924,175.872 133.091,184.372 120,192.5C 119.5,144.834 119.333,97.1678 119.5,49.5 Z
    "></path>
  </g>
  <g transform="matrix(1.143276, 0, 0, 1.079782, 229.54541, 183.690384)" style="">
    <path style="opacity:1" fill="#000000" d="M 119.5,49.5 C 135.051,58.4625 151.718,64.4625 169.5,67.5C 169.959,96.8754 169.459,126.209 168,155.5C 165.588,159.916 162.422,163.749 158.5,167C 145.924,175.872 133.091,184.372 120,192.5C 119.5,144.834 119.333,97.1678 119.5,49.5 Z
    "></path>
  </g>
  <g transform="matrix(-1.143276, 0, 0, 1.079782, 503.736877, 183.324051)" style="">
    <path style="opacity:1" fill="#000000" d="M 119.5 114.996 L 168.027 115.323 C 168.027 115.323 169.459 126.209 168 155.5 C 165.588 159.916 162.422 163.749 158.5 167 C 145.924 175.872 133.091 184.372 120 192.5 C 119.5 144.834 119.5 114.996 119.5 114.996 Z"></path>
  </g>
</svg>


